{
  "version": "1.1.6",
  "modules": [
    {
      "id": 1,
      "plugin": "Core",
      "version": "1.1.6",
      "model": "AudioInterface",
      "params": [],
      "leftModuleId": 844,
      "data": {
        "audio": {
          "driver": 6,
          "deviceName": "Speakers / HP (IDT High Definition Audio CODEC)",
          "offset": 0,
          "maxChannels": 8,
          "sampleRate": 44100,
          "blockSize": 256
        }
      },
      "pos": [
        57,
        0
      ]
    },
    {
      "id": 3,
      "plugin": "Fundamental",
      "version": "1.4.0",
      "model": "VCO",
      "params": [
        {
          "id": 0,
          "value": 1.0
        },
        {
          "id": 1,
          "value": 1.0
        },
        {
          "id": 2,
          "value": -13.4460001
        },
        {
          "id": 3,
          "value": 0.0
        },
        {
          "id": 4,
          "value": 0.0
        },
        {
          "id": 5,
          "value": 0.5
        },
        {
          "id": 6,
          "value": 0.0
        }
      ],
      "rightModuleId": 842,
      "pos": [
        0,
        0
      ]
    },
    {
      "id": 841,
      "plugin": "squinkylabs-plug1",
      "version": "1.0.15",
      "model": "squinkylabs-filt",
      "params": [
        {
          "id": 0,
          "value": -3.69500017
        },
        {
          "id": 1,
          "value": 1.0
        },
        {
          "id": 2,
          "value": 0.0
        },
        {
          "id": 3,
          "value": 2.80000138
        },
        {
          "id": 4,
          "value": 0.0
        },
        {
          "id": 5,
          "value": 14.0
        },
        {
          "id": 6,
          "value": -1.37
        },
        {
          "id": 7,
          "value": 0.0
        },
        {
          "id": 8,
          "value": 0.0
        },
        {
          "id": 9,
          "value": 0.0
        },
        {
          "id": 10,
          "value": 0.0
        },
        {
          "id": 11,
          "value": 5.0
        },
        {
          "id": 12,
          "value": 0.0
        },
        {
          "id": 13,
          "value": 0.592499971
        },
        {
          "id": 14,
          "value": 0.268999994
        },
        {
          "id": 15,
          "value": 0.0
        }
      ],
      "leftModuleId": 842,
      "rightModuleId": 843,
      "pos": [
        20,
        0
      ]
    },
    {
      "id": 842,
      "plugin": "Fundamental",
      "version": "1.4.0",
      "model": "LFO",
      "params": [
        {
          "id": 0,
          "value": 1.0
        },
        {
          "id": 1,
          "value": 1.0
        },
        {
          "id": 2,
          "value": -1.78100026
        },
        {
          "id": 3,
          "value": 0.0
        },
        {
          "id": 4,
          "value": 0.0
        },
        {
          "id": 5,
          "value": 0.5
        },
        {
          "id": 6,
          "value": 0.0
        }
      ],
      "leftModuleId": 3,
      "rightModuleId": 841,
      "pos": [
        10,
        0
      ]
    },
    {
      "id": 843,
      "plugin": "AS",
      "version": "1.0.4",
      "model": "PhaserFx",
      "params": [
        {
          "id": 0,
          "value": 0.406499982
        },
        {
          "id": 1,
          "value": 0.0
        },
        {
          "id": 2,
          "value": 1.0
        },
        {
          "id": 3,
          "value": 0.0
        }
      ],
      "leftModuleId": 841,
      "rightModuleId": 844,
      "data": {
        "as_FxBypass": [
          false
        ]
      },
      "pos": [
        34,
        0
      ]
    },
    {
      "id": 844,
      "plugin": "squinkylabs-plug1",
      "version": "1.0.15",
      "model": "squinkylabs-mixm",
      "params": [
        {
          "id": 0,
          "value": 0.75
        },
        {
          "id": 1,
          "value": 0.0
        },
        {
          "id": 2,
          "value": 0.507000029
        },
        {
          "id": 3,
          "value": 0.531000018
        },
        {
          "id": 4,
          "value": 0.0
        },
        {
          "id": 5,
          "value": 0.0
        },
        {
          "id": 6,
          "value": 0.0
        },
        {
          "id": 7,
          "value": 0.0
        },
        {
          "id": 8,
          "value": 0.0
        },
        {
          "id": 9,
          "value": 0.0
        },
        {
          "id": 10,
          "value": 0.0
        },
        {
          "id": 11,
          "value": 0.0
        },
        {
          "id": 12,
          "value": 0.0
        },
        {
          "id": 13,
          "value": 0.0
        },
        {
          "id": 14,
          "value": 0.0
        },
        {
          "id": 15,
          "value": 0.0
        },
        {
          "id": 16,
          "value": 0.0
        },
        {
          "id": 17,
          "value": 0.0
        },
        {
          "id": 18,
          "value": 0.0
        },
        {
          "id": 19,
          "value": 0.0
        },
        {
          "id": 20,
          "value": 0.0
        },
        {
          "id": 21,
          "value": 0.0
        },
        {
          "id": 22,
          "value": 0.0
        },
        {
          "id": 23,
          "value": 0.0
        },
        {
          "id": 24,
          "value": 0.0
        },
        {
          "id": 25,
          "value": 0.0
        },
        {
          "id": 26,
          "value": 0.0
        },
        {
          "id": 27,
          "value": 0.0
        },
        {
          "id": 28,
          "value": 0.0
        },
        {
          "id": 29,
          "value": 0.0
        },
        {
          "id": 30,
          "value": 0.0
        },
        {
          "id": 31,
          "value": 0.0
        },
        {
          "id": 32,
          "value": 0.0
        },
        {
          "id": 33,
          "value": 0.0
        },
        {
          "id": 34,
          "value": 0.0
        },
        {
          "id": 35,
          "value": 0.0
        },
        {
          "id": 36,
          "value": 0.0
        }
      ],
      "leftModuleId": 843,
      "rightModuleId": 1,
      "pos": [
        40,
        0
      ]
    }
  ],
  "cables": [
    {
      "id": 2217,
      "outputModuleId": 3,
      "outputId": 3,
      "inputModuleId": 841,
      "inputId": 0,
      "color": "#0986ad"
    },
    {
      "id": 2218,
      "outputModuleId": 3,
      "outputId": 3,
      "inputModuleId": 843,
      "inputId": 0,
      "color": "#c9b70e"
    },
    {
      "id": 2219,
      "outputModuleId": 843,
      "outputId": 0,
      "inputModuleId": 844,
      "inputId": 1,
      "color": "#0c8e15"
    },
    {
      "id": 2216,
      "outputModuleId": 841,
      "outputId": 0,
      "inputModuleId": 844,
      "inputId": 0,
      "color": "#c91847"
    },
    {
      "id": 2220,
      "outputModuleId": 844,
      "outputId": 0,
      "inputModuleId": 1,
      "inputId": 0,
      "color": "#c91847"
    },
    {
      "id": 2221,
      "outputModuleId": 844,
      "outputId": 1,
      "inputModuleId": 1,
      "inputId": 1,
      "color": "#0986ad"
    },
    {
      "id": 2215,
      "outputModuleId": 842,
      "outputId": 1,
      "inputModuleId": 841,
      "inputId": 2,
      "color": "#0c8e15"
    }
  ]
}